<?xml version="1.0" encoding="UTF-8" standalone="no"?>
<!-- Creator: CorelDRAW X6 -->

<svg
   xmlns:dc="http://purl.org/dc/elements/1.1/"
   xmlns:cc="http://creativecommons.org/ns#"
   xmlns:rdf="http://www.w3.org/1999/02/22-rdf-syntax-ns#"
   xmlns:svg="http://www.w3.org/2000/svg"
   xmlns="http://www.w3.org/2000/svg"
   xmlns:sodipodi="http://sodipodi.sourceforge.net/DTD/sodipodi-0.dtd"
   xmlns:inkscape="http://www.inkscape.org/namespaces/inkscape"
   xml:space="preserve"
   width="286.56546mm"
   height="208.11586mm"
   version="1.1"
   style="clip-rule:evenodd;fill-rule:evenodd;image-rendering:optimizeQuality;shape-rendering:geometricPrecision;text-rendering:geometricPrecision"
   viewBox="0 0 31287.359 22721.875"
   id="svg22"
   sodipodi:docname="strokes.svg"
   inkscape:version="0.92.4 (5da689c313, 2019-01-14)"><metadata
   id="metadata26"><rdf:RDF><cc:Work
       rdf:about=""><dc:format>image/svg+xml</dc:format><dc:type
         rdf:resource="http://purl.org/dc/dcmitype/StillImage" /></cc:Work></rdf:RDF></metadata><sodipodi:namedview
   pagecolor="#ffffff"
   bordercolor="#666666"
   borderopacity="1"
   objecttolerance="10"
   gridtolerance="10"
   guidetolerance="10"
   inkscape:pageopacity="0"
   inkscape:pageshadow="2"
   inkscape:window-width="1920"
   inkscape:window-height="1017"
   id="namedview24"
   showgrid="false"
   inkscape:zoom="1.0489042"
   inkscape:cx="541.53118"
   inkscape:cy="393.29548"
   inkscape:window-x="-8"
   inkscape:window-y="-8"
   inkscape:window-maximized="1"
   inkscape:current-layer="svg22" />
 <defs
   id="defs4">
  <style
   type="text/css"
   id="style2">
   <![CDATA[
    .str3 {stroke:#E6A0A1;stroke-width:54.59}
    .str5 {stroke:#718FC8;stroke-width:76.426}
    .str4 {stroke:#F7ADAF;stroke-width:109.18}
    .str2 {stroke:#A5C3D5;stroke-width:163.77}
    .str1 {stroke:#E6A0A1;stroke-width:174.688}
    .str0 {stroke:#7593AD;stroke-width:185.606}
    .fil0 {fill:none}
   ]]>
  </style>
 
  
  
  
  
  
  
  
  
 </defs>
 <path
   style="fill:none;stroke:#4a8dac;stroke-width:185.60600281;stroke-opacity:1"
   inkscape:connector-curvature="0"
   id="path7"
   d="m 285.39517,22182.774 c 621,-3548 2046.00003,-4517 4358.00003,-5052 3767,-872 8915.9998,-3239 9209.9998,-7682.0002 143,-2162 -2240,425 2392,-1045 2286,-725 5058,-4182 7903,-6157 2257,-1567.99997 5276,-1673.99997 5765,-1620.99997"
   class="fil0 str0" /><path
   style="fill:none;stroke:#ee86b7;stroke-width:174.68800354;stroke-opacity:1"
   inkscape:connector-curvature="0"
   id="path9"
   d="m 29849.395,620.77383 c -1306,6530.99997 -14838,7738.99997 -19835,10864.00017 -6345.9998,3969 -4865.9998,10928 -9932.99983,11150"
   class="fil0 str1" /><path
   style="fill:none;stroke:#6e7376;stroke-width:163.77000427;stroke-opacity:1"
   inkscape:connector-curvature="0"
   id="path11"
   d="m 81.39517,22689.774 c 286,-2603 3058.00003,-6299 6036.00003,-7179 6619.9998,-1956 9356.9998,-302 12166.9998,-7094.0002 1864,-4505 3659,-4306 8250,-5390 1682,-397 2265,-1333 3377,-2345.99997"
   class="fil0 str2" /><path
   style="fill:none;stroke:#ee86b7;stroke-width:54.59000015;stroke-opacity:1"
   inkscape:connector-curvature="0"
   id="path13"
   d="m 29912.395,625.77383 c -1104,3010.99997 -2345,5710.99997 -5804,6698.99997 -7112,2032 -10938,-1652 -15667.9998,7585.0002 -1848,3609 -3542,4905 -6936,6889 -157,92 -1239.00003,720 -1418.00003,786"
   class="fil0 str3" /><path
   style="fill:none;stroke:#6e7376;stroke-width:163.77000427;stroke-opacity:1"
   inkscape:connector-curvature="0"
   id="path15"
   d="m 81.39517,22634.774 c 13747.99983,-3284 423,-11981 11524.99983,-11634 2771,86 5456,2201 8993,-256 4690,-3258.0002 8050,-9152.0002 9180,-10127.00017"
   class="fil0 str2" /><path
   style="fill:none;stroke:#ee86b7;stroke-width:109.18000031;stroke-opacity:1"
   inkscape:connector-curvature="0"
   id="path17"
   d="m 1021.3952,21842.774 c 621,-3548 2046,-4517 4358,-5052 3767,-872 8915.9998,-3239 9209.9998,-7682.0002 143,-2162 -2240,425 2392,-1045 2286,-725 5058,-4182 7903,-6157 2257,-1567.99997 5276,-1673.99997 5765,-1620.99997"
   class="fil0 str4" /><path
   style="fill:none;stroke:#4a8dac;stroke-width:76.4260025;stroke-opacity:1"
   inkscape:connector-curvature="0"
   id="path19"
   d="m 1564.3952,22045.774 c 13747.9998,-3284 423,-11981 11524.9998,-11634 2771,86 5456,2201 8993,-256 4690,-3258.0002 8050,-9152.0002 9180,-10127.000167"
   class="fil0 str5" />
</svg>